<svg width="107" height="100" viewBox="0 0 107 100" fill="none" xmlns="http://www.w3.org/2000/svg">
<rect x="11.3984" y="0.972656" width="84" height="84" rx="42" fill="#C83B38"/>
<path fill-rule="evenodd" clip-rule="evenodd" d="M35.3984 42.9727C35.3984 33.0367 43.4444 24.9727 53.3804 24.9727C63.3344 24.9727 71.3984 33.0367 71.3984 42.9727C71.3984 52.9087 63.3344 60.9727 53.3804 60.9727C43.4444 60.9727 35.3984 52.9087 35.3984 42.9727ZM47.3984 39.9727C48.6411 39.9727 49.6484 38.9653 49.6484 37.7227C49.6484 36.48 48.6411 35.4727 47.3984 35.4727C46.1558 35.4727 45.1484 36.48 45.1484 37.7227C45.1484 38.9653 46.1558 39.9727 47.3984 39.9727ZM59.3984 39.9727C60.6411 39.9727 61.6484 38.9653 61.6484 37.7227C61.6484 36.48 60.6411 35.4727 59.3984 35.4727C58.1558 35.4727 57.1484 36.48 57.1484 37.7227C57.1484 38.9653 58.1558 39.9727 59.3984 39.9727ZM53.3984 58.7227C44.6966 58.7227 37.6484 51.6745 37.6484 42.9727C37.6484 34.2708 44.6966 27.2227 53.3984 27.2227C62.1003 27.2227 69.1484 34.2708 69.1484 42.9727C69.1484 51.6745 62.1003 58.7227 53.3984 58.7227ZM45.1484 52.7227C46.4375 49.2084 49.644 46.7227 53.3984 46.7227C57.1528 46.7227 60.3594 49.2084 61.6484 52.7227H58.9575C57.8296 50.6827 56.3984 48.9727 53.3984 48.9727C50.3984 48.9727 48.9512 50.6827 47.8394 52.7227H45.1484Z" fill="white"/>
<rect x="0.648438" y="68.9727" width="105.5" height="30.5" rx="15.25" fill="white"/>
<rect x="0.648438" y="68.9727" width="105.5" height="30.5" rx="15.25" stroke="#818181"/>
<path d="M38.9199 78.8242H40.4238V85.332C40.4307 87.4102 38.8652 88.8867 36.5 88.8867C34.1143 88.8867 32.5557 87.4102 32.5625 85.332V78.8242H34.0664V85.209C34.0596 86.5488 34.9961 87.5127 36.5 87.5195C37.9971 87.5127 38.9199 86.5488 38.9199 85.209V78.8242ZM42.3242 88.7227V81.2988H43.7324V82.4746H43.8145C44.0879 81.6816 44.833 81.1826 45.7012 81.1895C45.8789 81.1826 46.166 81.2031 46.3164 81.2168V82.6113C46.1934 82.584 45.8516 82.5225 45.5508 82.5293C44.5391 82.5225 43.7871 83.2266 43.7871 84.1973V88.7227H42.3242ZM50.2813 91.6621C48.4082 91.6621 47.1709 90.835 47.041 89.4473H48.5313C48.6748 90.1514 49.3311 90.4932 50.2949 90.4863C51.457 90.4932 52.1885 89.9873 52.1953 88.832V87.3691H52.0996C51.8398 87.8477 51.3066 88.6133 49.9395 88.6133C48.1895 88.6133 46.8359 87.3076 46.8359 84.9355C46.8359 82.5635 48.1689 81.2031 49.9531 81.2031C51.334 81.2031 51.8398 82.0371 52.1133 82.502H52.209V81.2988H53.6309V88.8867C53.6377 90.7939 52.1953 91.6621 50.2813 91.6621ZM48.3262 84.9629C48.3193 86.4189 48.9893 87.4033 50.2676 87.4102C51.5117 87.4033 52.209 86.4941 52.209 84.9629C52.209 83.459 51.5254 82.4404 50.2676 82.4473C48.9756 82.4404 48.3193 83.541 48.3262 84.9629ZM58.6074 88.873C56.4199 88.873 55.0732 87.3623 55.0801 85.0586C55.0732 82.7754 56.4404 81.2031 58.5117 81.2031C60.2002 81.2031 61.8066 82.249 61.8066 84.9355V85.4551H56.5293C56.5703 86.8701 57.4043 87.6699 58.6211 87.6699C59.4482 87.6699 59.9883 87.3145 60.2344 86.8633H61.7109C61.3828 88.0664 60.2412 88.873 58.6074 88.873ZM56.5361 84.3613H60.3711C60.3711 83.2334 59.6396 82.3994 58.5254 82.4062C57.3564 82.3994 56.5977 83.3154 56.5361 84.3613ZM64.7188 84.3203V88.7227H63.2559V81.2988H64.6641V82.5156H64.7461C65.0947 81.7158 65.8262 81.2031 66.9336 81.2031C68.458 81.2031 69.4697 82.167 69.4629 84.0059V88.7227H68.0137V84.1836C68.0068 83.1035 67.4258 82.4609 66.4414 82.4609C65.4365 82.4609 64.7188 83.1377 64.7188 84.3203ZM74.7129 81.2988V82.4609H73.1953V86.5352C73.2021 87.376 73.6123 87.5264 74.084 87.5332C74.2959 87.5332 74.6172 87.5127 74.8223 87.4922V88.7637C74.624 88.791 74.3096 88.8184 73.9063 88.8184C72.7646 88.8184 71.7324 88.1895 71.7461 86.8359V82.4609H70.6523V81.2988H71.7461V79.5215H73.1953V81.2988H74.7129Z" fill="black"/>
</svg>
