<svg width="142" height="133" viewBox="0 0 142 133" fill="none" xmlns="http://www.w3.org/2000/svg">
<rect x="14.9961" y="0.0976562" width="112" height="112" rx="56" fill="#BDBDBD"/>
<path fill-rule="evenodd" clip-rule="evenodd" d="M46.9961 56.0977C46.9961 42.8497 57.7241 32.0977 70.9721 32.0977C84.2441 32.0977 94.9961 42.8497 94.9961 56.0977C94.9961 69.3457 84.2441 80.0977 70.9721 80.0977C57.7241 80.0977 46.9961 69.3457 46.9961 56.0977ZM62.9961 52.0977C64.6529 52.0977 65.9961 50.7545 65.9961 49.0977C65.9961 47.4408 64.6529 46.0977 62.9961 46.0977C61.3392 46.0977 59.9961 47.4408 59.9961 49.0977C59.9961 50.7545 61.3392 52.0977 62.9961 52.0977ZM78.9961 52.0977C80.6529 52.0977 81.9961 50.7545 81.9961 49.0977C81.9961 47.4408 80.6529 46.0977 78.9961 46.0977C77.3392 46.0977 75.9961 47.4408 75.9961 49.0977C75.9961 50.7545 77.3392 52.0977 78.9961 52.0977ZM70.9961 77.0977C59.3936 77.0977 49.9961 67.7002 49.9961 56.0977C49.9961 44.4952 59.3936 35.0977 70.9961 35.0977C82.5986 35.0977 91.9961 44.4952 91.9961 56.0977C91.9961 67.7002 82.5986 77.0977 70.9961 77.0977ZM59.9961 69.0977C61.7148 64.4119 65.9902 61.0977 70.9961 61.0977C76.002 61.0977 80.2773 64.4119 81.9961 69.0977H78.4082C76.9043 66.3777 74.9961 64.0977 70.9961 64.0977C66.9961 64.0977 65.0664 66.3777 63.584 69.0977H59.9961Z" fill="white"/>
<rect x="0.496094" y="90.5977" width="141" height="41" rx="20.5" fill="white"/>
<rect x="0.496094" y="90.5977" width="141" height="41" rx="20.5" stroke="#818181"/>
<path d="M51.2632 118.098V104.664H59.687V106.427H53.3042V110.49H59.2417V112.234H53.3042V116.335H59.7612V118.098H51.2632ZM62.0249 118.098V108.022H63.936V109.618H64.0474C64.4185 108.542 65.4297 107.865 66.6079 107.874C66.8491 107.865 67.2388 107.893 67.4429 107.911V109.804C67.2759 109.767 66.812 109.683 66.4038 109.692C65.0308 109.683 64.0103 110.639 64.0103 111.956V118.098H62.0249ZM68.9272 118.098V108.022H70.8384V109.618H70.9497C71.3208 108.542 72.332 107.865 73.5103 107.874C73.7515 107.865 74.1411 107.893 74.3452 107.911V109.804C74.1782 109.767 73.7144 109.683 73.3062 109.692C71.9331 109.683 70.9126 110.639 70.9126 111.956V118.098H68.9272ZM79.7632 118.302C76.9058 118.302 75.041 116.224 75.0503 113.106C75.041 109.971 76.9058 107.893 79.7632 107.893C82.6021 107.893 84.4575 109.971 84.4575 113.106C84.4575 116.224 82.6021 118.302 79.7632 118.302ZM77.0356 113.106C77.0356 115.027 77.917 116.65 79.7632 116.65C81.5815 116.65 82.4536 115.027 82.4536 113.106C82.4536 111.177 81.5815 109.535 79.7632 109.525C77.917 109.535 77.0356 111.177 77.0356 113.106ZM86.4058 118.098V108.022H88.3169V109.618H88.4282C88.7993 108.542 89.8105 107.865 90.9888 107.874C91.23 107.865 91.6196 107.893 91.8237 107.911V109.804C91.6567 109.767 91.1929 109.683 90.7847 109.692C89.4116 109.683 88.3911 110.639 88.3911 111.956V118.098H86.4058Z" fill="black"/>
</svg>
