<svg width="108" height="100" viewBox="0 0 108 100" fill="none" xmlns="http://www.w3.org/2000/svg">
<rect x="12.1758" y="0.972656" width="84" height="84" rx="42" fill="#BDBDBD"/>
<path fill-rule="evenodd" clip-rule="evenodd" d="M36.1758 42.9727C36.1758 33.0367 44.2218 24.9727 54.1578 24.9727C64.1118 24.9727 72.1758 33.0367 72.1758 42.9727C72.1758 52.9087 64.1118 60.9727 54.1578 60.9727C44.2218 60.9727 36.1758 52.9087 36.1758 42.9727ZM48.1758 39.9727C49.4184 39.9727 50.4258 38.9653 50.4258 37.7227C50.4258 36.48 49.4184 35.4727 48.1758 35.4727C46.9331 35.4727 45.9258 36.48 45.9258 37.7227C45.9258 38.9653 46.9331 39.9727 48.1758 39.9727ZM60.1758 39.9727C61.4184 39.9727 62.4258 38.9653 62.4258 37.7227C62.4258 36.48 61.4184 35.4727 60.1758 35.4727C58.9331 35.4727 57.9258 36.48 57.9258 37.7227C57.9258 38.9653 58.9331 39.9727 60.1758 39.9727ZM54.1758 58.7227C45.4739 58.7227 38.4258 51.6745 38.4258 42.9727C38.4258 34.2708 45.4739 27.2227 54.1758 27.2227C62.8777 27.2227 69.9258 34.2708 69.9258 42.9727C69.9258 51.6745 62.8777 58.7227 54.1758 58.7227ZM45.9258 52.7227C47.2148 49.2084 50.4214 46.7227 54.1758 46.7227C57.9302 46.7227 61.1367 49.2084 62.4258 52.7227H59.7349C58.6069 50.6827 57.1758 48.9727 54.1758 48.9727C51.1758 48.9727 49.7285 50.6827 48.6167 52.7227H45.9258Z" fill="white"/>
<rect x="1.42578" y="68.9727" width="105.5" height="30.5" rx="15.25" fill="white"/>
<rect x="1.42578" y="68.9727" width="105.5" height="30.5" rx="15.25" stroke="#818181"/>
<path d="M21.1992 78.8242V88.7227H19.6953V78.8242H21.1992ZM24.5488 84.3203V88.7227H23.0859V81.2988H24.4941V82.5156H24.5762C24.9248 81.7158 25.6562 81.2031 26.7637 81.2031C28.2881 81.2031 29.2998 82.167 29.293 84.0059V88.7227H27.8437V84.1836C27.8369 83.1035 27.2559 82.4609 26.2715 82.4609C25.2666 82.4609 24.5488 83.1377 24.5488 84.3203ZM34.2148 88.873C32.0478 88.873 30.7353 87.2803 30.7422 85.0449C30.7353 82.7822 32.0957 81.2031 34.1875 81.2031C35.8828 81.2031 37.1064 82.2012 37.2637 83.7051H35.8418C35.6914 83.0078 35.1377 82.4268 34.2148 82.4199C33.0117 82.4268 32.2051 83.4248 32.2051 85.0039C32.2051 86.6309 32.9912 87.6357 34.2148 87.6289C35.042 87.6357 35.6572 87.1709 35.8418 86.3711H37.2637C37.1064 87.8135 35.9648 88.873 34.2148 88.873ZM41.7891 88.873C39.6836 88.873 38.3096 87.3418 38.3164 85.0449C38.3096 82.7344 39.6836 81.2031 41.7891 81.2031C43.8809 81.2031 45.248 82.7344 45.248 85.0449C45.248 87.3418 43.8809 88.873 41.7891 88.873ZM39.7793 85.0449C39.7793 86.46 40.4287 87.6562 41.7891 87.6562C43.1289 87.6562 43.7715 86.46 43.7715 85.0449C43.7715 83.623 43.1289 82.4131 41.7891 82.4062C40.4287 82.4131 39.7793 83.623 39.7793 85.0449ZM46.6836 88.7227V81.2988H48.0918V82.5156H48.1738C48.4883 81.6885 49.2197 81.2031 50.1973 81.2031C51.1885 81.2031 51.8789 81.6885 52.1934 82.5156H52.2754C52.624 81.7158 53.4307 81.2031 54.5039 81.2031C55.8437 81.2031 56.7939 82.0439 56.8008 83.7461V88.7227H55.3379V83.8828C55.3379 82.8779 54.709 82.4609 53.9434 82.4609C53.0068 82.4609 52.4668 83.1035 52.4668 83.9922V88.7227H51.0176V83.8008C51.0176 82.9873 50.4639 82.4609 49.6641 82.4609C48.8437 82.4609 48.1465 83.1445 48.1465 84.1426V88.7227H46.6836ZM58.5645 91.5117V81.2988H59.9863V82.502H60.1094C60.3691 82.0371 60.8682 81.2031 62.2422 81.2031C64.04 81.2031 65.3594 82.6113 65.3594 85.0312C65.3594 87.4238 64.0537 88.8662 62.2559 88.873C60.9092 88.8662 60.376 88.0459 60.1094 87.5605H60.0273V91.5117H58.5645ZM60 85.0039C60 86.5625 60.6836 87.6221 61.9277 87.6289C63.2129 87.6221 63.8828 86.4941 63.8828 85.0039C63.8828 83.541 63.2334 82.4404 61.9277 82.4473C60.6699 82.4404 60 83.459 60 85.0039ZM68.2715 78.8242V88.7227H66.8086V78.8242H68.2715ZM73.248 88.873C71.0605 88.873 69.7139 87.3623 69.7207 85.0586C69.7139 82.7754 71.0811 81.2031 73.1523 81.2031C74.8408 81.2031 76.4473 82.249 76.4473 84.9355V85.4551H71.1699C71.2109 86.8701 72.0449 87.6699 73.2617 87.6699C74.0889 87.6699 74.6289 87.3145 74.875 86.8633H76.3516C76.0234 88.0664 74.8818 88.873 73.248 88.873ZM71.1768 84.3613H75.0117C75.0117 83.2334 74.2803 82.3994 73.166 82.4062C71.9971 82.3994 71.2383 83.3154 71.1768 84.3613ZM81.3691 81.2988V82.4609H79.8516V86.5352C79.8584 87.376 80.2686 87.5264 80.7402 87.5332C80.9521 87.5332 81.2734 87.5127 81.4785 87.4922V88.7637C81.2803 88.791 80.9658 88.8184 80.5625 88.8184C79.4209 88.8184 78.3887 88.1895 78.4023 86.8359V82.4609H77.3086V81.2988H78.4023V79.5215H79.8516V81.2988H81.3691ZM85.9082 88.873C83.7207 88.873 82.374 87.3623 82.3809 85.0586C82.374 82.7754 83.7412 81.2031 85.8125 81.2031C87.501 81.2031 89.1074 82.249 89.1074 84.9355V85.4551H83.8301C83.8711 86.8701 84.7051 87.6699 85.9219 87.6699C86.749 87.6699 87.2891 87.3145 87.5352 86.8633H89.0117C88.6836 88.0664 87.542 88.873 85.9082 88.873ZM83.8369 84.3613H87.6719C87.6719 83.2334 86.9404 82.3994 85.8262 82.4062C84.6572 82.3994 83.8984 83.3154 83.8369 84.3613Z" fill="black"/>
</svg>
