<svg width="107" height="100" viewBox="0 0 107 100" fill="none" xmlns="http://www.w3.org/2000/svg">
<rect x="11.3984" y="0.972656" width="84" height="84" rx="42" fill="#3C9C9C"/>
<path fill-rule="evenodd" clip-rule="evenodd" d="M35.3984 42.9727C35.3984 33.0367 43.4444 24.9727 53.3804 24.9727C63.3344 24.9727 71.3984 33.0367 71.3984 42.9727C71.3984 52.9087 63.3344 60.9727 53.3804 60.9727C43.4444 60.9727 35.3984 52.9087 35.3984 42.9727ZM47.3984 39.9727C48.6411 39.9727 49.6484 38.9653 49.6484 37.7227C49.6484 36.48 48.6411 35.4727 47.3984 35.4727C46.1558 35.4727 45.1484 36.48 45.1484 37.7227C45.1484 38.9653 46.1558 39.9727 47.3984 39.9727ZM59.3984 39.9727C60.6411 39.9727 61.6484 38.9653 61.6484 37.7227C61.6484 36.48 60.6411 35.4727 59.3984 35.4727C58.1558 35.4727 57.1484 36.48 57.1484 37.7227C57.1484 38.9653 58.1558 39.9727 59.3984 39.9727ZM53.3984 58.7227C44.6966 58.7227 37.6484 51.6745 37.6484 42.9727C37.6484 34.2708 44.6966 27.2227 53.3984 27.2227C62.1003 27.2227 69.1484 34.2708 69.1484 42.9727C69.1484 51.6745 62.1003 58.7227 53.3984 58.7227ZM61.6484 46.7227C60.3594 50.2369 57.1528 52.7227 53.3984 52.7227C49.644 52.7227 46.4375 50.2369 45.1484 46.7227L47.8394 46.7227C48.9673 48.7627 50.3984 50.4727 53.3984 50.4727C56.3984 50.4727 57.8457 48.7627 58.9575 46.7227H61.6484Z" fill="white"/>
<rect x="0.648438" y="68.9727" width="105.5" height="30.5" rx="15.25" fill="white"/>
<rect x="0.648438" y="68.9727" width="105.5" height="30.5" rx="15.25" stroke="#818181"/>
<path d="M31.127 88.7227V78.8242H34.6543C36.958 78.8242 38.0859 80.2051 38.0859 82.0371C38.0859 83.8623 36.9512 85.25 34.6543 85.25H32.6309V88.7227H31.127ZM32.6309 83.9648H34.5039C35.96 83.9717 36.5684 83.1514 36.5684 82.0371C36.5684 80.916 35.96 80.1162 34.5039 80.1094H32.6309V83.9648ZM39.1387 86.6309C39.1318 84.9355 40.5742 84.498 41.9141 84.4023C42.4062 84.375 43.5205 84.3135 43.8623 84.2998L43.8555 83.7051C43.8623 82.8643 43.3428 82.3789 42.3516 82.3789C41.4902 82.3789 40.9707 82.7754 40.8203 83.3223H39.3711C39.501 82.0918 40.6494 81.2031 42.4062 81.2031C43.5889 81.2031 45.3115 81.6338 45.3184 83.7871V88.7227H43.8965V87.7109H43.8418C43.5547 88.2646 42.8711 88.8867 41.6406 88.8867C40.2324 88.8867 39.1318 88.0801 39.1387 86.6309ZM40.5605 86.6445C40.5605 87.3555 41.1484 87.7178 41.9687 87.7246C43.1582 87.7178 43.8691 86.9248 43.8691 86.043L43.8623 85.3662C43.5273 85.3867 42.4678 85.4619 42.1191 85.4824C41.1621 85.5508 40.5605 85.9131 40.5605 86.6445ZM51.252 83.3223C51.1152 82.7344 50.6504 82.3516 49.8438 82.3516C49.0098 82.3516 48.415 82.7822 48.4219 83.3496C48.415 83.7871 48.7637 84.1016 49.584 84.293L50.7598 84.5664C52.127 84.874 52.79 85.5234 52.7969 86.5762C52.79 87.916 51.6553 88.873 49.7617 88.873C47.9775 88.873 46.9248 88.0801 46.7402 86.6992H48.2305C48.3604 87.3691 48.8662 87.7041 49.748 87.6973C50.6914 87.7041 51.2998 87.3076 51.3066 86.6855C51.2998 86.207 50.9443 85.8994 50.1582 85.7148L48.9961 85.4687C47.6563 85.1748 46.959 84.457 46.959 83.4316C46.959 82.1123 48.1074 81.2031 49.8301 81.2031C51.4844 81.2031 52.5166 82.0439 52.6602 83.3223H51.252ZM58.3887 83.3223C58.252 82.7344 57.7871 82.3516 56.9805 82.3516C56.1465 82.3516 55.5518 82.7822 55.5586 83.3496C55.5518 83.7871 55.9004 84.1016 56.7207 84.293L57.8965 84.5664C59.2637 84.874 59.9268 85.5234 59.9336 86.5762C59.9268 87.916 58.792 88.873 56.8984 88.873C55.1143 88.873 54.0615 88.0801 53.877 86.6992H55.3672C55.4971 87.3691 56.0029 87.7041 56.8848 87.6973C57.8281 87.7041 58.4365 87.3076 58.4434 86.6855C58.4365 86.207 58.0811 85.8994 57.2949 85.7148L56.1328 85.4687C54.793 85.1748 54.0957 84.457 54.0957 83.4316C54.0957 82.1123 55.2441 81.2031 56.9668 81.2031C58.6211 81.2031 59.6533 82.0439 59.7969 83.3223H58.3887ZM64.5547 88.873C62.3672 88.873 61.0205 87.3623 61.0273 85.0586C61.0205 82.7754 62.3877 81.2031 64.459 81.2031C66.1475 81.2031 67.7539 82.249 67.7539 84.9355V85.4551H62.4766C62.5176 86.8701 63.3516 87.6699 64.5684 87.6699C65.3955 87.6699 65.9355 87.3145 66.1816 86.8633H67.6582C67.3301 88.0664 66.1885 88.873 64.5547 88.873ZM62.4834 84.3613H66.3184C66.3184 83.2334 65.5869 82.3994 64.4727 82.4062C63.3037 82.3994 62.5449 83.3154 62.4834 84.3613ZM71.9785 88.873C70.1875 88.8662 68.875 87.4238 68.875 85.0312C68.875 82.6113 70.208 81.2031 71.9922 81.2031C73.373 81.2031 73.8721 82.0371 74.1387 82.502H74.207V78.8242H75.6699V88.7227H74.248V87.5605H74.1387C73.8652 88.0459 73.332 88.8662 71.9785 88.873ZM70.3652 85.0039C70.3584 86.4941 71.0283 87.6221 72.3066 87.6289C73.5508 87.6221 74.248 86.5625 74.248 85.0039C74.248 83.459 73.5645 82.4404 72.3066 82.4473C71.0146 82.4404 70.3584 83.541 70.3652 85.0039Z" fill="black"/>
</svg>
