<svg width="117" height="100" viewBox="0 0 117 100" fill="none" xmlns="http://www.w3.org/2000/svg">
<rect x="16.3984" y="0.972656" width="84" height="84" rx="42" fill="#FFBC00"/>
<path fill-rule="evenodd" clip-rule="evenodd" d="M58.3804 24.9727C48.4444 24.9727 40.3984 33.0367 40.3984 42.9727C40.3984 52.9087 48.4444 60.9727 58.3804 60.9727C68.3344 60.9727 76.3984 52.9087 76.3984 42.9727C76.3984 33.0367 68.3344 24.9727 58.3804 24.9727ZM54.6484 37.7227C54.6484 38.9653 53.6411 39.9727 52.3984 39.9727C51.1558 39.9727 50.1484 38.9653 50.1484 37.7227C50.1484 36.48 51.1558 35.4727 52.3984 35.4727C53.6411 35.4727 54.6484 36.48 54.6484 37.7227ZM66.6484 37.7227C66.6484 38.9653 65.6411 39.9727 64.3984 39.9727C63.1558 39.9727 62.1484 38.9653 62.1484 37.7227C62.1484 36.48 63.1558 35.4727 64.3984 35.4727C65.6411 35.4727 66.6484 36.48 66.6484 37.7227ZM42.6484 42.9727C42.6484 51.6745 49.6966 58.7227 58.3984 58.7227C67.1003 58.7227 74.1484 51.6745 74.1484 42.9727C74.1484 34.2708 67.1003 27.2227 58.3984 27.2227C49.6966 27.2227 42.6484 34.2708 42.6484 42.9727Z" fill="white"/>
<rect x="51.1992" y="48.373" width="14.4" height="2.7" fill="white"/>
<rect x="0.648438" y="68.9727" width="115.5" height="30.5" rx="15.25" fill="white"/>
<rect x="0.648438" y="68.9727" width="115.5" height="30.5" rx="15.25" stroke="#818181"/>
<path d="M11.3262 88.7227V78.8242H14.8535C17.1504 78.8242 18.2852 80.1094 18.2852 81.9277C18.2852 83.2607 17.6836 84.2725 16.4805 84.7168L18.668 88.7227H16.959L14.9492 84.9902H14.8535H12.8301V88.7227H11.3262ZM12.8301 83.6914H14.7031C16.166 83.6914 16.7676 83.0488 16.7676 81.9277C16.7676 80.8066 16.166 80.1094 14.7031 80.1094H12.8301V83.6914ZM22.9336 88.873C20.7461 88.873 19.4062 87.3691 19.4062 85.0586C19.4062 82.7754 20.7734 81.2031 22.8379 81.2031C24.5332 81.2031 26.1328 82.2559 26.1328 84.9355V85.4551H20.8555C20.8965 86.8633 21.7236 87.6699 22.9473 87.6699C23.7812 87.6699 24.3145 87.3145 24.5605 86.8633H26.0371C25.709 88.0664 24.5605 88.873 22.9336 88.873ZM20.8691 84.3613H24.6973C24.6973 83.2266 23.9727 82.4062 22.8516 82.4062C21.6826 82.4062 20.9238 83.3086 20.8691 84.3613ZM30.7266 88.873C28.5664 88.873 27.2539 87.2734 27.2539 85.0449C27.2539 82.7754 28.6074 81.2031 30.6992 81.2031C32.3945 81.2031 33.625 82.2012 33.7754 83.7051H32.3535C32.2031 83.0078 31.6426 82.4199 30.7266 82.4199C29.5234 82.4199 28.7168 83.418 28.7168 85.0039C28.7168 86.6309 29.5098 87.6289 30.7266 87.6289C31.5469 87.6289 32.1758 87.1777 32.3535 86.3711H33.7754C33.6113 87.8066 32.4766 88.873 30.7266 88.873ZM38.3008 88.873C36.1953 88.873 34.8281 87.3418 34.8281 85.0449C34.8281 82.7344 36.1953 81.2031 38.3008 81.2031C40.3926 81.2031 41.7598 82.7344 41.7598 85.0449C41.7598 87.3418 40.3926 88.873 38.3008 88.873ZM38.3008 87.6562C39.6406 87.6562 40.2832 86.4668 40.2832 85.0449C40.2832 83.623 39.6406 82.4062 38.3008 82.4062C36.9336 82.4062 36.291 83.623 36.291 85.0449C36.291 86.4668 36.9336 87.6562 38.3008 87.6562ZM43.1953 88.7227V81.2988H44.6035V82.5156H44.6855C45 81.6816 45.7246 81.2031 46.709 81.2031C47.6934 81.2031 48.3906 81.6953 48.7051 82.5156H48.7871C49.1426 81.709 49.9355 81.2031 51.0156 81.2031C52.3555 81.2031 53.3125 82.0508 53.3125 83.7461V88.7227H51.8496V83.8828C51.8496 82.8848 51.2207 82.4609 50.4551 82.4609C49.5117 82.4609 48.9785 83.1035 48.9785 83.9922V88.7227H47.5293V83.8008C47.5293 82.9941 46.9688 82.4609 46.1758 82.4609C45.3555 82.4609 44.6582 83.1445 44.6582 84.1426V88.7227H43.1953ZM55.0762 88.7227V81.2988H56.4844V82.5156H56.5664C56.8809 81.6816 57.6055 81.2031 58.5898 81.2031C59.5742 81.2031 60.2715 81.6953 60.5859 82.5156H60.668C61.0234 81.709 61.8164 81.2031 62.8965 81.2031C64.2363 81.2031 65.1934 82.0508 65.1934 83.7461V88.7227H63.7305V83.8828C63.7305 82.8848 63.1016 82.4609 62.3359 82.4609C61.3926 82.4609 60.8594 83.1035 60.8594 83.9922V88.7227H59.4102V83.8008C59.4102 82.9941 58.8496 82.4609 58.0566 82.4609C57.2363 82.4609 56.5391 83.1445 56.5391 84.1426V88.7227H55.0762ZM70.1563 88.873C67.9688 88.873 66.6289 87.3691 66.6289 85.0586C66.6289 82.7754 67.9961 81.2031 70.0605 81.2031C71.7559 81.2031 73.3555 82.2559 73.3555 84.9355V85.4551H68.0781C68.1191 86.8633 68.9463 87.6699 70.1699 87.6699C71.0039 87.6699 71.5371 87.3145 71.7832 86.8633H73.2598C72.9316 88.0664 71.7832 88.873 70.1563 88.873ZM68.0918 84.3613H71.9199C71.9199 83.2266 71.1953 82.4062 70.0742 82.4062C68.9053 82.4062 68.1465 83.3086 68.0918 84.3613ZM76.2676 84.3203V88.7227H74.8047V81.2988H76.2129V82.5156H76.2949C76.6504 81.7227 77.375 81.2031 78.4824 81.2031C80.0137 81.2031 81.0117 82.1602 81.0117 84.0059V88.7227H79.5625V84.1836C79.5625 83.1035 78.9746 82.4609 77.9902 82.4609C76.9922 82.4609 76.2676 83.1309 76.2676 84.3203ZM85.5645 88.873C83.7734 88.873 82.4609 87.4238 82.4609 85.0312C82.4609 82.6113 83.7871 81.2031 85.5781 81.2031C86.959 81.2031 87.4648 82.0371 87.7246 82.502H87.793V78.8242H89.2559V88.7227H87.834V87.5605H87.7246C87.4512 88.0527 86.918 88.873 85.5645 88.873ZM85.8926 87.6289C87.1367 87.6289 87.834 86.5625 87.834 85.0039C87.834 83.459 87.1504 82.4473 85.8926 82.4473C84.5938 82.4473 83.9512 83.541 83.9512 85.0039C83.9512 86.4941 84.6211 87.6289 85.8926 87.6289ZM94.3555 88.873C92.168 88.873 90.8281 87.3691 90.8281 85.0586C90.8281 82.7754 92.1953 81.2031 94.2598 81.2031C95.9551 81.2031 97.5547 82.2559 97.5547 84.9355V85.4551H92.2773C92.3184 86.8633 93.1455 87.6699 94.3691 87.6699C95.2031 87.6699 95.7363 87.3145 95.9824 86.8633H97.459C97.1309 88.0664 95.9824 88.873 94.3555 88.873ZM92.291 84.3613H96.1191C96.1191 83.2266 95.3945 82.4062 94.2734 82.4062C93.1045 82.4062 92.3457 83.3086 92.291 84.3613ZM101.779 88.873C99.9883 88.873 98.6758 87.4238 98.6758 85.0312C98.6758 82.6113 100.002 81.2031 101.793 81.2031C103.174 81.2031 103.68 82.0371 103.939 82.502H104.008V78.8242H105.471V88.7227H104.049V87.5605H103.939C103.666 88.0527 103.133 88.873 101.779 88.873ZM102.107 87.6289C103.352 87.6289 104.049 86.5625 104.049 85.0039C104.049 83.459 103.365 82.4473 102.107 82.4473C100.809 82.4473 100.166 83.541 100.166 85.0039C100.166 86.4941 100.836 87.6289 102.107 87.6289Z" fill="black"/>
</svg>
