<svg width="108" height="100" viewBox="0 0 108 100" fill="none" xmlns="http://www.w3.org/2000/svg">
<rect x="12.1758" y="0.972656" width="84" height="84" rx="42" fill="#BDBDBD"/>
<path fill-rule="evenodd" clip-rule="evenodd" d="M36.1758 42.9727C36.1758 33.0367 44.2218 24.9727 54.1578 24.9727C64.1118 24.9727 72.1758 33.0367 72.1758 42.9727C72.1758 52.9087 64.1118 60.9727 54.1578 60.9727C44.2218 60.9727 36.1758 52.9087 36.1758 42.9727ZM48.1758 39.9727C49.4184 39.9727 50.4258 38.9653 50.4258 37.7227C50.4258 36.48 49.4184 35.4727 48.1758 35.4727C46.9331 35.4727 45.9258 36.48 45.9258 37.7227C45.9258 38.9653 46.9331 39.9727 48.1758 39.9727ZM60.1758 39.9727C61.4184 39.9727 62.4258 38.9653 62.4258 37.7227C62.4258 36.48 61.4184 35.4727 60.1758 35.4727C58.9331 35.4727 57.9258 36.48 57.9258 37.7227C57.9258 38.9653 58.9331 39.9727 60.1758 39.9727ZM54.1758 58.7227C45.4739 58.7227 38.4258 51.6745 38.4258 42.9727C38.4258 34.2708 45.4739 27.2227 54.1758 27.2227C62.8777 27.2227 69.9258 34.2708 69.9258 42.9727C69.9258 51.6745 62.8777 58.7227 54.1758 58.7227ZM45.9258 52.7227C47.2148 49.2084 50.4214 46.7227 54.1758 46.7227C57.9302 46.7227 61.1367 49.2084 62.4258 52.7227H59.7349C58.6069 50.6827 57.1758 48.9727 54.1758 48.9727C51.1758 48.9727 49.7285 50.6827 48.6167 52.7227H45.9258Z" fill="white"/>
<rect x="1.42578" y="68.9727" width="105.5" height="30.5" rx="15.25" fill="white"/>
<rect x="1.42578" y="68.9727" width="105.5" height="30.5" rx="15.25" stroke="#818181"/>
<path d="M19.1963 78.8242V88.7227H17.8154L12.7978 81.4902H12.7158V88.7227H11.2119V78.8242H12.6064L17.624 86.0703H17.7197V78.8242H19.1963ZM24.2412 88.873C22.1357 88.873 20.7617 87.3418 20.7686 85.0449C20.7617 82.7344 22.1357 81.2031 24.2412 81.2031C26.333 81.2031 27.7002 82.7344 27.7002 85.0449C27.7002 87.3418 26.333 88.873 24.2412 88.873ZM22.2314 85.0449C22.2314 86.46 22.8809 87.6562 24.2412 87.6562C25.5811 87.6562 26.2236 86.46 26.2236 85.0449C26.2236 83.623 25.5811 82.4131 24.2412 82.4062C22.8809 82.4131 22.2314 83.623 22.2314 85.0449ZM32.6084 81.2988V82.4609H31.0908V86.5352C31.0977 87.376 31.5078 87.5264 31.9795 87.5332C32.1914 87.5332 32.5127 87.5127 32.7178 87.4922V88.7637C32.5195 88.791 32.2051 88.8184 31.8018 88.8184C30.6602 88.8184 29.6279 88.1895 29.6416 86.8359V82.4609H28.5478V81.2988H29.6416V79.5215H31.0908V81.2988H32.6084ZM43.9287 78.8242H45.4326V85.332C45.4395 87.4102 43.874 88.8867 41.5088 88.8867C39.123 88.8867 37.5645 87.4102 37.5713 85.332V78.8242H39.0752V85.209C39.0684 86.5488 40.0049 87.5127 41.5088 87.5195C43.0059 87.5127 43.9287 86.5488 43.9287 85.209V78.8242ZM47.333 91.5117V81.2988H48.7549V82.502H48.8779C49.1377 82.0371 49.6367 81.2031 51.0107 81.2031C52.8086 81.2031 54.1279 82.6113 54.1279 85.0312C54.1279 87.4238 52.8223 88.8662 51.0244 88.873C49.6777 88.8662 49.1445 88.0459 48.8779 87.5605H48.7959V91.5117H47.333ZM48.7686 85.0039C48.7686 86.5625 49.4521 87.6221 50.6963 87.6289C51.9814 87.6221 52.6514 86.4941 52.6514 85.0039C52.6514 83.541 52.002 82.4404 50.6963 82.4473C49.4385 82.4404 48.7686 83.459 48.7686 85.0039ZM57.04 78.8242V88.7227H55.5771V78.8242H57.04ZM61.9619 88.873C59.8564 88.873 58.4824 87.3418 58.4893 85.0449C58.4824 82.7344 59.8564 81.2031 61.9619 81.2031C64.0537 81.2031 65.4209 82.7344 65.4209 85.0449C65.4209 87.3418 64.0537 88.873 61.9619 88.873ZM59.9521 85.0449C59.9521 86.46 60.6016 87.6562 61.9619 87.6562C63.3018 87.6562 63.9443 86.46 63.9443 85.0449C63.9443 83.623 63.3018 82.4131 61.9619 82.4062C60.6016 82.4131 59.9521 83.623 59.9521 85.0449ZM66.5147 86.6309C66.5078 84.9355 67.9502 84.498 69.29 84.4023C69.7822 84.375 70.8965 84.3135 71.2383 84.2998L71.2314 83.7051C71.2383 82.8643 70.7188 82.3789 69.7275 82.3789C68.8662 82.3789 68.3467 82.7754 68.1963 83.3223H66.7471C66.877 82.0918 68.0254 81.2031 69.7822 81.2031C70.9648 81.2031 72.6875 81.6338 72.6943 83.7871V88.7227H71.2725V87.7109H71.2178C70.9307 88.2646 70.2471 88.8867 69.0166 88.8867C67.6084 88.8867 66.5078 88.0801 66.5147 86.6309ZM67.9365 86.6445C67.9365 87.3555 68.5244 87.7178 69.3447 87.7246C70.5342 87.7178 71.2451 86.9248 71.2451 86.043L71.2383 85.3662C70.9033 85.3867 69.8438 85.4619 69.4951 85.4824C68.5381 85.5508 67.9365 85.9131 67.9365 86.6445ZM77.2334 88.873C75.4424 88.8662 74.1299 87.4238 74.1299 85.0312C74.1299 82.6113 75.4629 81.2031 77.2471 81.2031C78.6279 81.2031 79.127 82.0371 79.3936 82.502H79.4619V78.8242H80.9248V88.7227H79.5029V87.5605H79.3936C79.1201 88.0459 78.5869 88.8662 77.2334 88.873ZM75.6201 85.0039C75.6133 86.4941 76.2832 87.6221 77.5615 87.6289C78.8057 87.6221 79.5029 86.5625 79.5029 85.0039C79.5029 83.459 78.8193 82.4404 77.5615 82.4473C76.2695 82.4404 75.6133 83.541 75.6201 85.0039ZM86.0244 88.873C83.8369 88.873 82.4902 87.3623 82.4971 85.0586C82.4902 82.7754 83.8574 81.2031 85.9287 81.2031C87.6172 81.2031 89.2236 82.249 89.2236 84.9355V85.4551H83.9463C83.9873 86.8701 84.8213 87.6699 86.0381 87.6699C86.8652 87.6699 87.4053 87.3145 87.6514 86.8633H89.1279C88.7998 88.0664 87.6582 88.873 86.0244 88.873ZM83.9531 84.3613H87.7881C87.7881 83.2334 87.0566 82.3994 85.9424 82.4062C84.7734 82.3994 84.0146 83.3154 83.9531 84.3613ZM93.4482 88.873C91.6572 88.8662 90.3447 87.4238 90.3447 85.0312C90.3447 82.6113 91.6777 81.2031 93.4619 81.2031C94.8428 81.2031 95.3418 82.0371 95.6084 82.502H95.6768V78.8242H97.1396V88.7227H95.7178V87.5605H95.6084C95.335 88.0459 94.8018 88.8662 93.4482 88.873ZM91.835 85.0039C91.8281 86.4941 92.498 87.6221 93.7764 87.6289C95.0205 87.6221 95.7178 86.5625 95.7178 85.0039C95.7178 83.459 95.0342 82.4404 93.7764 82.4473C92.4844 82.4404 91.8281 83.541 91.835 85.0039Z" fill="black"/>
</svg>
